<svg preserveAspectRatio="none" width="100%" height="100%" overflow="visible" style="display: block;" viewBox="0 0 114 120" fill="none" xmlns="http://www.w3.org/2000/svg">
<g id="Frame" clip-path="url(#clip0_0_6)">
<path id="XMLID_1_" d="M114 108.685C104.899 115.378 94.3614 118.088 83.5042 119.522C70.2521 121.116 57.479 118.884 45.0252 114.104C32.7311 109.482 24.5883 101.036 19.958 88.9243C12.7731 69.9602 11.6555 50.6773 17.0841 31.0757C17.8824 27.8884 18.6807 24.7012 19.479 21.3546C19.479 21.1952 19.3194 20.8765 19 20.0797C13.0925 24.2231 7.34457 28.3665 1.43701 32.3506C0.958017 32.0319 0.63869 31.7131 0.159698 31.2351C0.319362 29.9602 3.4303e-05 28.2072 0.798354 27.4104C10.3782 18.4861 19.958 9.72111 29.8572 1.11553C32.5715 -1.2749 34.9664 -0.318729 36.5631 3.02788C37.521 4.78087 37.8404 7.01195 38.6387 8.76494C40.395 12.1115 42.311 15.4582 44.0673 18.8048C45.6639 21.8327 47.2605 25.0199 49.0168 28.3665C43.7479 28.5259 42.4706 27.5697 32.8908 16.5737C32.0925 18.3267 31.2942 19.6016 30.6555 21.1952C24.7479 38.247 21.395 55.6175 25.2269 73.7849C30.1765 97.5299 37.2017 105.976 64.3446 112.988C79.5126 116.813 94.3614 113.944 108.731 108.845C110.328 108.207 111.924 107.57 113.521 106.932C113.521 107.729 113.681 108.207 114 108.685Z" fill="var(--fill-0, #23282B)" fill-opacity="0.5"/>
</g>
<defs>
<clipPath id="clip0_0_6">
<rect width="114" height="120" fill="white"/>
</clipPath>
</defs>
</svg>
