<svg preserveAspectRatio="none" width="100%" height="100%" overflow="visible" style="display: block;" viewBox="0 0 114 120" fill="none" xmlns="http://www.w3.org/2000/svg">
<g id="Frame" clip-path="url(#clip0_0_4)">
<path id="XMLID_1_" d="M114 108.685C104.899 115.378 94.3616 118.088 83.5044 119.522C70.2523 121.115 57.4792 118.884 45.0254 114.104C32.7313 109.482 24.5885 101.036 19.9582 88.9243C12.7733 69.9601 11.6557 50.6772 17.0843 31.0757C17.8826 27.8884 18.6809 24.7012 19.4792 21.3545C19.4792 21.1952 19.3195 20.8765 19.0002 20.0796C13.0927 24.2231 7.34476 28.3665 1.43719 32.3506C0.958201 32.0318 0.638874 31.7131 0.159882 31.235C0.319546 29.9601 0.000218094 28.2071 0.798537 27.4103C10.3784 18.486 19.9582 9.72108 29.8574 1.1155C32.5717 -1.27494 34.9666 -0.318765 36.5632 3.02785C37.5212 4.78084 37.8406 7.01191 38.6389 8.7649C40.3952 12.1115 42.3111 15.4581 44.0674 18.8047C45.6641 21.8326 47.2607 25.0199 49.017 28.3665C43.7481 28.5259 42.4708 27.5697 32.891 16.5737C32.0927 18.3267 31.2943 19.6016 30.6557 21.1952C24.7481 38.247 21.3952 55.6175 25.2271 73.7848C30.1767 97.5298 37.2019 105.976 64.3448 112.988C79.5128 116.813 94.3616 113.944 108.731 108.845C110.328 108.207 111.925 107.57 113.521 106.932C113.521 107.729 113.681 108.207 114 108.685Z" fill="var(--fill-0, #23282B)" fill-opacity="0.5"/>
</g>
<defs>
<clipPath id="clip0_0_4">
<rect width="114" height="120" fill="white"/>
</clipPath>
</defs>
</svg>
