<svg preserveAspectRatio="none" width="100%" height="100%" overflow="visible" style="display: block;" viewBox="0 0 240 80" fill="none" xmlns="http://www.w3.org/2000/svg">
<g id="Marca" clip-path="url(#clip0_0_38)">
<path id="Vector" d="M191.741 24.7188C191.741 24.7188 191.552 24.9375 191.741 24.9688C194.834 25.5625 201.526 27.375 206.954 32.75C212.383 38.125 214.214 44.75 214.813 47.8125C214.813 47.9688 215.066 47.9375 215.066 47.8125V24.7188H191.773H191.741Z" fill="var(--fill-0, #E23C51)"/>
<path id="Vector_2" d="M238.106 21.6875C234.066 17.4688 227.564 18.9375 224.187 15.6875C220.905 12.3125 222.388 5.90626 218.127 1.90626C217.401 1.18751 216.455 0.531261 215.255 0.0312611C215.16 1.10737e-05 215.066 0.0312611 215.066 0.156261C215.066 2.46876 215.066 24.75 215.066 24.75C215.066 24.75 237.57 24.75 239.905 24.75C240 24.75 240.063 24.6563 240.032 24.5625C239.495 23.3438 238.864 22.4375 238.138 21.7188L238.106 21.6875Z" fill="var(--fill-0, #E23C51)"/>
<path id="Vector_3" d="M27.5224 26.0938C26.4177 25.5313 25.1236 25 23.5771 24.5313C22.0621 24.0625 20.2946 23.8438 18.3062 23.8438C15.3709 23.8438 12.7828 24.3438 10.5103 25.375C8.26936 26.375 6.34405 27.8438 4.76594 29.6875C3.18782 31.5625 1.98845 33.8125 1.19939 36.4375C0.378774 39.0625 -0.0315363 41.9687 -0.0315363 45.1875C-0.0315363 48.4062 0.315649 51.4687 1.42033 54.0312C3.44032 58.7187 8.07998 66.4687 18.4009 66.4687C24.8396 66.4687 27.4277 62.4062 27.4908 62.3125L28.1221 65.2812H37.0226V5L27.4908 6.5625V26.125L27.5224 26.0938ZM27.5224 41.5312V55.0625C27.4277 55.2812 24.8396 58.2812 20.4524 58.2812C16.949 58.2812 14.7396 57.0937 12.7512 54.75C10.7628 52.375 9.75279 49.125 9.75279 44.9687C9.75279 40.8125 10.5418 37.8125 12.1515 35.4687C13.7612 33.125 16.2862 31.9687 19.758 31.9687C21.3362 31.9687 22.8196 32.2187 24.2083 32.7187C25.5971 33.2187 26.7018 33.75 27.5539 34.3125V41.5625L27.5224 41.5312Z" fill="var(--fill-0, #E23C51)"/>
<path id="Vector_4" d="M60.6943 23.6875C58.2956 23.6875 55.9284 24.1563 53.6244 25.0625C51.3203 25.9688 49.2688 27.3125 47.5013 29.125C45.7022 30.9063 44.2819 33.1563 43.2088 35.875C42.1357 38.5625 41.5991 41.7188 41.5991 45.3125C41.5991 48.375 42.0094 51.1875 42.8616 53.75C43.7138 56.3125 44.9763 58.5625 46.7122 60.4375C48.4482 62.3438 50.6575 63.8125 53.3088 64.875C55.9916 65.9375 59.1162 66.4688 62.7459 66.4688C64.1662 66.4688 65.5549 66.4063 66.9121 66.25C68.2693 66.0938 69.5318 65.9063 70.7312 65.6563C71.899 65.4375 72.9721 65.1563 73.8874 64.875C74.8027 64.5938 75.5286 64.3125 76.0652 64.0625L74.8027 56.3438C73.698 56.8125 72.183 57.25 70.2893 57.6563C68.364 58.0625 66.2493 58.2813 63.9453 58.2813C60 58.2813 57.0016 57.375 54.95 55.5938C52.8669 53.8125 51.6991 51.2813 51.4466 48H78.5902C78.6533 47.4688 78.6849 46.9063 78.7164 46.25C78.7164 45.5938 78.748 45.0313 78.748 44.5C78.748 37.5938 77.1699 32.4063 73.9821 28.9375C70.7943 25.4688 66.3756 23.7188 60.7259 23.7188L60.6943 23.6875ZM51.4781 41.0625C51.636 39.875 51.92 38.6875 52.3303 37.5625C52.7406 36.4063 53.3403 35.4063 54.0978 34.5313C54.8553 33.6563 55.8022 32.9375 56.8753 32.375C57.98 31.8438 59.274 31.5625 60.7259 31.5625C62.1778 31.5625 63.3456 31.8125 64.3871 32.3125C65.3971 32.8125 66.2809 33.4688 66.9752 34.3438C67.6696 35.1875 68.2062 36.2188 68.5849 37.375C68.9637 38.5313 69.1215 39.7813 69.1215 41.0625H51.415H51.4781Z" fill="var(--fill-0, #E23C51)"/>
<path id="Vector_5" d="M109.269 46.4687C108.259 45.4687 106.933 44.5625 105.387 43.75C103.809 42.9375 101.883 42.125 99.6423 41.2812C98.2851 40.8125 97.1173 40.375 96.1704 39.9062C95.2236 39.4687 94.4661 39.0312 93.8979 38.5937C93.3298 38.1562 92.9195 37.6875 92.667 37.1562C92.4461 36.625 92.3198 36.0312 92.3198 35.375C92.3198 34.0312 92.9195 33.0312 94.1189 32.375C95.3182 31.7187 96.8964 31.4062 98.8532 31.4062C100.999 31.4062 102.893 31.5937 104.503 32C106.113 32.375 107.47 32.8125 108.511 33.2812L110.247 25.6562C109.143 25.25 107.501 24.8125 105.292 24.375C103.083 23.9375 100.779 23.7187 98.3798 23.7187C93.6139 23.7187 89.8264 24.8125 87.0489 26.9375C84.2714 29.0937 82.8827 32.0312 82.8827 35.7812C82.8827 37.6875 83.1983 39.3125 83.798 40.6562C84.3977 41.9687 85.2183 43.125 86.2914 44.0312C87.333 44.9687 88.5955 45.7812 90.0158 46.5C91.4676 47.1875 93.0458 47.875 94.7817 48.5C97.6223 49.5312 99.6423 50.5 100.873 51.375C102.104 52.25 102.735 53.375 102.735 54.7187C102.735 56.1875 102.167 57.1875 100.999 57.7812C99.8317 58.375 98.001 58.6875 95.5076 58.6875C93.0142 58.6875 90.7417 58.4375 88.7848 57.9062C86.828 57.375 85.1236 56.8437 83.7033 56.2812L82.0621 64.1563C82.9458 64.5313 84.4924 65 86.7017 65.5937C88.9111 66.1875 91.8148 66.5 95.4445 66.5C100.842 66.5 105.008 65.5 107.912 63.5C110.815 61.5 112.267 58.5625 112.267 54.6562C112.267 52.8437 112.046 51.2812 111.573 49.9687C111.099 48.6562 110.342 47.5 109.332 46.5L109.269 46.4687Z" fill="var(--fill-0, #E23C51)"/>
<path id="Vector_6" d="M137.486 57.7187C136.16 58.0937 134.613 58.25 132.877 58.25C130.352 58.25 128.585 57.5625 127.543 56.1562C126.502 54.75 125.965 52.4062 125.965 49.1562V32.5625H140.61V24.6875H125.965V12.4062L116.433 13.9687V49.25C116.433 51.9375 116.654 54.3437 117.128 56.4687C117.601 58.5625 118.422 60.375 119.558 61.8437C120.726 63.3125 122.272 64.4687 124.229 65.2187C126.186 66 128.648 66.375 131.583 66.375C133.982 66.375 136.097 66.125 137.864 65.625C139.632 65.125 141.084 64.6562 142.188 64.1875L140.61 56.7187C139.821 57.0312 138.748 57.375 137.422 57.7187H137.486Z" fill="var(--fill-0, #E23C51)"/>
<path id="Vector_7" d="M169.553 39.8438C168.101 45.0625 166.523 49.9688 164.85 54.5938C163.84 52.375 162.862 49.9375 161.852 47.3438C160.842 44.75 159.895 42.125 159.011 39.5C158.127 36.875 157.275 34.2813 156.518 31.75C155.76 29.2188 155.097 26.8438 154.592 24.6563H144.429C146.575 32.25 149.037 39.4063 151.815 46.1563C154.592 52.9063 157.464 59.125 160.463 64.8438C159.421 67.2813 158.19 69.0938 156.802 70.25C155.413 71.4063 153.456 72 150.994 72C149.164 72 147.27 71.625 145.376 70.9063L143.64 78.4688C144.366 78.8438 145.471 79.1563 146.923 79.4688C148.375 79.7813 149.826 79.9375 151.278 79.9375C153.488 79.9375 155.413 79.6875 157.117 79.1875C158.79 78.6875 160.305 77.9063 161.694 76.8125C163.051 75.7188 164.282 74.3438 165.387 72.6875C166.491 71.0313 167.564 69.0313 168.606 66.6875C174.192 54.125 179.116 40.0938 183.377 24.625H173.53C172.33 29.5 171.005 34.5625 169.521 39.7813L169.553 39.8438Z" fill="var(--fill-0, #E23C51)"/>
</g>
<defs>
<clipPath id="clip0_0_38">
<rect width="240" height="80" fill="white"/>
</clipPath>
</defs>
</svg>
