<svg preserveAspectRatio="none" width="100%" height="100%" overflow="visible" style="display: block;" viewBox="0 0 24 24" fill="none" xmlns="http://www.w3.org/2000/svg">
<g id="Icon">
<path id="Union" d="M11.9999 1.25C17.937 1.25 22.7499 6.06294 22.7499 12C22.7499 17.9371 17.937 22.75 11.9999 22.75C10.519 22.75 9.10598 22.4503 7.82022 21.9072C7.48305 21.7648 7.2551 21.6686 7.07999 21.6045C6.9016 21.5392 6.83694 21.5295 6.82022 21.5283C6.72633 21.5218 6.59794 21.5459 5.9921 21.708L2.19425 22.7246C1.93552 22.7938 1.65902 22.7197 1.46964 22.5303C1.28028 22.3409 1.20608 22.0644 1.2753 21.8057L2.2919 18.0078C2.45405 17.4018 2.47809 17.2736 2.47159 17.1797C2.47042 17.163 2.46076 17.0983 2.39542 16.9199C2.33128 16.7448 2.2351 16.5169 2.09268 16.1797C1.54965 14.8939 1.24991 13.4809 1.24991 12C1.24991 6.06297 6.06289 1.25005 11.9999 1.25ZM11.9999 2.75C6.89132 2.75005 2.74991 6.8914 2.74991 12C2.74991 13.2768 3.00812 14.4913 3.47452 15.5957C3.61102 15.9189 3.72397 16.1868 3.80362 16.4043C3.88197 16.6182 3.95157 16.8433 3.96768 17.0762C3.99573 17.4814 3.87282 17.9033 3.74112 18.3955L3.05948 20.9395L5.6044 20.2588C6.09656 20.1271 6.51851 20.0042 6.92374 20.0322C7.15657 20.0483 7.3817 20.118 7.59561 20.1963C7.81309 20.2759 8.08105 20.3889 8.40421 20.5254C9.50856 20.9918 10.7232 21.25 11.9999 21.25C17.1085 21.25 21.2499 17.1086 21.2499 12C21.2499 6.89137 17.1085 2.75 11.9999 2.75ZM8.97354 6.25C9.19394 6.25001 9.56528 6.25657 9.90811 6.39941C10.3178 6.5702 10.6557 6.92231 10.7421 7.47363C10.8496 8.15988 10.9307 8.68131 10.9843 9.0498C11.011 9.2337 11.0322 9.38645 11.0458 9.50586C11.057 9.60401 11.071 9.73957 11.0644 9.85254C11.0356 10.3419 10.8364 10.7307 10.6298 11.0322C10.4466 11.2995 10.177 11.5991 10.0429 11.7656L9.49405 12.4473C9.77999 12.8296 10.0988 13.1985 10.4501 13.5498C10.8011 13.9007 11.1697 14.2192 11.5517 14.5049L12.2343 13.957C12.4008 13.8229 12.7004 13.5533 12.9677 13.3701C13.2692 13.1635 13.6581 12.9643 14.1474 12.9355C14.2603 12.9289 14.3959 12.943 14.4941 12.9541C14.6134 12.9677 14.7662 12.9889 14.9501 13.0156C15.3186 13.0692 15.8401 13.1503 16.5263 13.2578C17.0776 13.3442 17.4297 13.6821 17.6005 14.0918C17.7434 14.4347 17.7499 14.806 17.7499 15.0264L17.7489 15.4053C17.7431 15.7772 17.7113 16.1292 17.5526 16.4766C17.4082 16.7927 17.1629 17.0619 16.9179 17.2578C16.6729 17.4536 16.3566 17.6338 16.0165 17.7051C15.5288 17.8072 15.1623 17.7143 14.7626 17.624C12.8385 17.1894 10.9513 16.174 9.38858 14.6113C7.8259 13.0486 6.81045 11.1614 6.37589 9.2373C6.28563 8.83761 6.19271 8.47115 6.29483 7.9834C6.36608 7.64334 6.54629 7.32702 6.7421 7.08203C6.93797 6.837 7.20722 6.59168 7.52335 6.44727C7.98637 6.23578 8.45799 6.25 8.97354 6.25ZM14.2353 14.4336C14.1179 14.4405 13.9916 14.4867 13.8153 14.6074C13.6048 14.7517 13.4639 14.8921 13.1747 15.125L12.8944 15.3496C13.61 15.722 14.3511 15.9935 15.0937 16.1611C15.5332 16.2604 15.5875 16.2617 15.7089 16.2363C15.7538 16.2269 15.8596 16.1832 15.9814 16.0859C16.1031 15.9886 16.1693 15.8952 16.1884 15.8535C16.2355 15.7504 16.2499 15.6511 16.2499 15.0264C16.2499 14.9283 16.2471 14.8484 16.2392 14.7812C16.2367 14.7608 16.2311 14.744 16.2284 14.7295C15.5713 14.6265 15.081 14.5504 14.7343 14.5C14.5551 14.474 14.4209 14.4552 14.3251 14.4443C14.2085 14.4311 14.1993 14.4357 14.2353 14.4336ZM8.97354 7.75C8.34886 7.75 8.24954 7.76441 8.1464 7.81152C8.10468 7.83063 8.01125 7.89688 7.91397 8.01855C7.81667 8.14029 7.77301 8.24614 7.76358 8.29102C7.73815 8.41247 7.73951 8.46663 7.83878 8.90625C8.00636 9.6484 8.27726 10.3893 8.64933 11.1045L8.87491 10.8252C9.10779 10.536 9.24819 10.3951 9.39249 10.1846C9.51328 10.0083 9.5594 9.88206 9.56632 9.76465C9.56422 9.80069 9.56884 9.79162 9.55558 9.6748C9.54469 9.57903 9.52596 9.44485 9.49991 9.26562C9.44948 8.91869 9.37252 8.42824 9.26944 7.77051C9.25518 7.76789 9.23856 7.7631 9.21866 7.76074C9.15155 7.75281 9.07158 7.75001 8.97354 7.75Z" fill="var(--fill-0, #8C9498)"/>
</g>
</svg>
