<svg preserveAspectRatio="none" width="100%" height="100%" overflow="visible" style="display: block;" viewBox="0 0 24 24" fill="none" xmlns="http://www.w3.org/2000/svg">
<g id="Icon">
<path id="Union" d="M12 19.75C12.4142 19.75 12.75 20.0858 12.75 20.5V22C12.75 22.4142 12.4142 22.75 12 22.75C11.5858 22.75 11.25 22.4142 11.25 22V20.5C11.25 20.0858 11.5858 19.75 12 19.75ZM5.45898 17.4805C5.75188 17.1876 6.22761 17.1876 6.52051 17.4805C6.81308 17.7733 6.81308 18.2482 6.52051 18.541L5.45898 19.6016C5.16608 19.8943 4.69129 19.8944 4.39844 19.6016C4.10583 19.3087 4.10576 18.8338 4.39844 18.541L5.45898 17.4805ZM17.4795 17.4805C17.7723 17.1876 18.2471 17.1877 18.54 17.4805L19.6016 18.541C19.8941 18.8338 19.8941 19.3087 19.6016 19.6016C19.3087 19.8945 18.8329 19.8945 18.54 19.6016L17.4795 18.541C17.1868 18.2482 17.1869 17.7733 17.4795 17.4805ZM12 6.25C15.1756 6.25 17.75 8.82436 17.75 12C17.75 15.1756 15.1756 17.75 12 17.75C8.82436 17.75 6.25 15.1756 6.25 12C6.25 8.82436 8.82436 6.25 12 6.25ZM12 7.75C9.65279 7.75 7.75 9.65279 7.75 12C7.75 14.3472 9.65279 16.25 12 16.25C14.3472 16.25 16.25 14.3472 16.25 12C16.25 9.65279 14.3472 7.75 12 7.75ZM3.5 11.25C3.91421 11.25 4.25 11.5858 4.25 12C4.25 12.4142 3.91421 12.75 3.5 12.75H2C1.58579 12.75 1.25 12.4142 1.25 12C1.25 11.5858 1.58579 11.25 2 11.25H3.5ZM22 11.25C22.4142 11.25 22.75 11.5858 22.75 12C22.75 12.4142 22.4142 12.75 22 12.75H20.5C20.0858 12.75 19.75 12.4142 19.75 12C19.75 11.5858 20.0858 11.25 20.5 11.25H22ZM4.39844 4.39844C4.69133 4.10554 5.16609 4.10554 5.45898 4.39844L6.51953 5.45898C6.81242 5.75188 6.81242 6.22664 6.51953 6.51953C6.22664 6.81242 5.75188 6.81242 5.45898 6.51953L4.39844 5.45898C4.10554 5.16609 4.10554 4.69133 4.39844 4.39844ZM18.541 4.39844C18.8339 4.10554 19.3087 4.10554 19.6016 4.39844C19.8945 4.69133 19.8945 5.16609 19.6016 5.45898L18.541 6.51953C18.2481 6.81242 17.7734 6.81242 17.4805 6.51953C17.1876 6.22664 17.1876 5.75188 17.4805 5.45898L18.541 4.39844ZM12 1.25C12.4142 1.25 12.75 1.58579 12.75 2V3.5C12.75 3.91421 12.4142 4.25 12 4.25C11.5858 4.25 11.25 3.91421 11.25 3.5V2C11.25 1.58579 11.5858 1.25 12 1.25Z" fill="var(--fill-0, #8C9498)"/>
</g>
</svg>
