<svg preserveAspectRatio="none" width="100%" height="100%" overflow="visible" style="display: block;" viewBox="0 0 24 24" fill="none" xmlns="http://www.w3.org/2000/svg">
<g id="Icon">
<path id="Union" d="M9.08045 2.78676C11.0333 2.7377 12.9674 2.73769 14.9203 2.78676C16.4717 2.82574 17.7176 2.85463 18.7133 3.02797C19.7426 3.20727 20.5797 3.55188 21.2865 4.26136C21.9903 4.96786 22.3323 5.79267 22.5082 6.80531C22.6778 7.78228 22.7026 8.99867 22.7348 10.5084C22.756 11.5044 22.756 12.4949 22.7348 13.4909C22.7026 15.0006 22.6778 16.217 22.5082 17.194C22.3323 18.2066 21.9901 19.0314 21.2865 19.7379C20.5797 20.4474 19.7426 20.792 18.7133 20.9713C17.7176 21.1447 16.4717 21.1736 14.9203 21.2125C12.9674 21.2616 11.0333 21.2616 9.08045 21.2125C7.52901 21.1736 6.28315 21.1446 5.28749 20.9713C4.25799 20.792 3.4211 20.4475 2.71424 19.7379C2.01039 19.0314 1.66844 18.2068 1.49256 17.194C1.32296 16.217 1.2982 15.0006 1.266 13.4909C1.24477 12.4949 1.24477 11.5044 1.266 10.5084C1.2982 8.99868 1.32293 7.78227 1.49256 6.80531C1.66846 5.79272 2.01048 4.96783 2.71424 4.26136C3.42103 3.55206 4.25816 3.20723 5.28749 3.02797C6.28313 2.85468 7.52908 2.82573 9.08045 2.78676ZM14.8832 4.28578C12.9554 4.23734 11.0454 4.23735 9.11756 4.28578C7.52141 4.32588 6.40542 4.35657 5.54432 4.50648C4.71714 4.65056 4.20091 4.89434 3.77674 5.31996C3.34967 5.74871 3.10969 6.25865 2.9701 7.06215C2.8244 7.90151 2.79916 8.9848 2.766 10.5397C2.74521 11.5146 2.74522 12.4847 2.766 13.4596C2.79916 15.0145 2.82443 16.0978 2.9701 16.9371C3.10968 17.7409 3.3496 18.2505 3.77674 18.6793C4.20097 19.1052 4.71691 19.3487 5.54432 19.4928C6.40543 19.6427 7.52134 19.6734 9.11756 19.7135C11.0454 19.7619 12.9554 19.7619 14.8832 19.7135C16.4794 19.6734 17.5953 19.6428 18.4564 19.4928C19.2836 19.3487 19.7998 19.1051 20.224 18.6793C20.6509 18.2506 20.8911 17.7407 21.0306 16.9371C21.1763 16.0978 21.2016 15.0144 21.2348 13.4596C21.2555 12.4847 21.2555 11.5146 21.2348 10.5397C21.2016 8.98479 21.1764 7.90152 21.0306 7.06215C20.8911 6.25857 20.6511 5.74873 20.224 5.31996C19.7998 4.89416 19.2837 4.65061 18.4564 4.50648C17.5953 4.35652 16.4794 4.32589 14.8832 4.28578ZM16.6185 7.85414C16.975 7.64373 17.4351 7.76158 17.6459 8.11781C17.8566 8.47418 17.7383 8.93419 17.3822 9.14515L14.4398 10.8844C13.5691 11.3992 12.8176 11.7495 12.0004 11.7496C11.183 11.7496 10.4317 11.3992 9.56092 10.8844L6.61854 9.14515C6.26209 8.93431 6.14409 8.47432 6.35487 8.11781C6.56583 7.76169 7.02584 7.64344 7.38221 7.85414L10.3236 9.5934C11.1679 10.0926 11.6174 10.2496 12.0004 10.2496C12.3833 10.2495 12.8331 10.0924 13.6771 9.5934L16.6185 7.85414Z" fill="var(--fill-0, #8C9498)"/>
</g>
</svg>
