<svg preserveAspectRatio="none" width="100%" height="100%" overflow="visible" style="display: block;" viewBox="0 0 24 24" fill="none" xmlns="http://www.w3.org/2000/svg">
<g id="Icon">
<path id="Union" d="M13.0564 1.62182C14.2549 1.12539 15.602 1.12558 16.8005 1.62182C17.2877 1.8236 17.7193 2.13221 18.1843 2.53784C18.6444 2.9391 19.1773 3.47223 19.8523 4.14721C20.5273 4.82219 21.0604 5.35516 21.4617 5.81518C21.8673 6.28026 22.1759 6.71188 22.3777 7.19897C22.874 8.39755 22.8741 9.74455 22.3777 10.9431C22.1759 11.4303 21.8674 11.8617 21.4617 12.3269C21.0604 12.7869 20.5273 13.3199 19.8523 13.9949L13.9949 19.8523C13.3199 20.5273 12.7869 21.0604 12.3269 21.4617C11.8617 21.8674 11.4303 22.1759 10.9431 22.3777C9.74455 22.8741 8.39755 22.874 7.19897 22.3777C6.71188 22.1759 6.28026 21.8673 5.81518 21.4617C5.35516 21.0604 4.82219 20.5273 4.14721 19.8523C3.47223 19.1773 2.9391 18.6444 2.53784 18.1843C2.13221 17.7193 1.8236 17.2877 1.62182 16.8005C1.12558 15.602 1.12539 14.2549 1.62182 13.0564C1.82364 12.5692 2.13213 12.1377 2.53784 11.6726C2.93913 11.2126 3.47224 10.6796 4.14721 10.0046L10.0046 4.14721C10.6796 3.47224 11.2126 2.93913 11.6726 2.53784C12.1377 2.13213 12.5692 1.82364 13.0564 1.62182ZM16.2263 3.00757C15.3954 2.66366 14.4615 2.66347 13.6306 3.00757C13.3567 3.12104 13.0662 3.31246 12.6589 3.66772C12.2464 4.02759 11.7548 4.51816 11.0652 5.20776L5.20776 11.0652C4.51816 11.7548 4.02759 12.2464 3.66772 12.6589C3.31246 13.0662 3.12104 13.3567 3.00757 13.6306C2.66347 14.4615 2.66366 15.3954 3.00757 16.2263C3.12103 16.5002 3.31244 16.7916 3.66772 17.199C4.02754 17.6115 4.51833 18.1023 5.20776 18.7917C5.89717 19.4812 6.38804 19.9719 6.80053 20.3318C7.20787 20.6871 7.49929 20.8784 7.77319 20.9919C8.60412 21.336 9.53799 21.336 10.3689 20.9919C10.6428 20.8785 10.9332 20.6871 11.3406 20.3318C11.49 20.2015 11.6482 20.0524 11.824 19.8845L9.96948 18.03C9.67683 17.7371 9.67667 17.2623 9.96948 16.9695C10.2623 16.6767 10.7371 16.6768 11.03 16.9695L12.8923 18.8318C12.9059 18.8182 12.9206 18.8055 12.9343 18.7917L15.3328 16.3933L13.4695 14.53C13.1768 14.2371 13.1767 13.7623 13.4695 13.4695C13.7623 13.1767 14.2371 13.1768 14.53 13.4695L16.3933 15.3328L18.7917 12.9343C18.8055 12.9206 18.8182 12.9059 18.8318 12.8923L16.9695 11.03C16.6768 10.7371 16.6767 10.2623 16.9695 9.96948C17.2623 9.67667 17.7371 9.67683 18.03 9.96948L19.8845 11.824C20.0524 11.6482 20.2015 11.49 20.3318 11.3406C20.6871 10.9332 20.8785 10.6428 20.9919 10.3689C21.336 9.53799 21.336 8.60412 20.9919 7.77319C20.8784 7.49929 20.6871 7.20787 20.3318 6.80053C19.9719 6.38804 19.4812 5.89717 18.7917 5.20776C18.1023 4.51833 17.6115 4.02754 17.199 3.66772C16.7916 3.31244 16.5002 3.12103 16.2263 3.00757Z" fill="var(--fill-0, #8C9498)"/>
</g>
</svg>
