<svg preserveAspectRatio="none" width="100%" height="100%" overflow="visible" style="display: block;" viewBox="0 0 24 24" fill="none" xmlns="http://www.w3.org/2000/svg">
<g id="Icon">
<path id="Union" d="M16.5 3.75C18.8472 3.75 20.75 5.65279 20.75 8C20.75 9.33409 20.1345 10.5236 19.1729 11.3027C21.2657 12.2147 22.75 14.1678 22.75 16.5C22.75 16.9142 22.4142 17.25 22 17.25C21.5858 17.25 21.25 16.9142 21.25 16.5C21.25 14.2185 19.1922 12.25 16.5 12.25C16.3547 12.25 16.2112 12.24 16.0693 12.2256C15.8207 13.0524 15.3272 13.7725 14.6729 14.3027C16.7657 15.2147 18.25 17.1678 18.25 19.5C18.25 19.9142 17.9142 20.25 17.5 20.25C17.0858 20.25 16.75 19.9142 16.75 19.5C16.75 17.2185 14.6922 15.25 12 15.25C9.30778 15.25 7.25 17.2185 7.25 19.5C7.25 19.9142 6.91421 20.25 6.5 20.25C6.08579 20.25 5.75 19.9142 5.75 19.5C5.75 17.1681 7.23377 15.2149 9.32617 14.3027C8.672 13.7725 8.17827 13.0523 7.92969 12.2256C7.78813 12.2399 7.64496 12.25 7.5 12.25C4.80778 12.25 2.75 14.2185 2.75 16.5C2.75 16.9142 2.41421 17.25 2 17.25C1.58579 17.25 1.25 16.9142 1.25 16.5C1.25 14.1681 2.73377 12.2149 4.82617 11.3027C3.8649 10.5235 3.25 9.33382 3.25 8C3.25 5.65279 5.15279 3.75 7.5 3.75C9.41979 3.75 11.0417 5.02263 11.5693 6.77051C11.7109 6.75626 11.8547 6.75 12 6.75C12.1453 6.75 12.2891 6.75626 12.4307 6.77051C12.958 5.02259 14.5802 3.75014 16.5 3.75ZM12 8.25C10.4812 8.25 9.25 9.48122 9.25 11C9.25 12.5188 10.4812 13.75 12 13.75C13.5188 13.75 14.75 12.5188 14.75 11C14.75 9.48122 13.5188 8.25 12 8.25ZM7.5 5.25C5.98122 5.25 4.75 6.48122 4.75 8C4.75 9.51878 5.98122 10.75 7.5 10.75C7.58743 10.75 7.67365 10.7443 7.75879 10.7363C7.85439 9.17468 8.79243 7.84067 10.125 7.18457C9.77741 6.06457 8.73435 5.25 7.5 5.25ZM16.5 5.25C15.2657 5.25014 14.2216 6.06452 13.874 7.18457C15.207 7.84053 16.1446 9.1744 16.2402 10.7363C16.3257 10.7444 16.4122 10.75 16.5 10.75C18.0188 10.75 19.25 9.51878 19.25 8C19.25 6.48122 18.0188 5.25 16.5 5.25Z" fill="var(--fill-0, #8C9498)"/>
</g>
</svg>
