<svg preserveAspectRatio="none" width="100%" height="100%" overflow="visible" style="display: block;" viewBox="0 0 24 24" fill="none" xmlns="http://www.w3.org/2000/svg">
<g id="Icon">
<path id="Union" d="M12 1.75C14.2177 1.75 15.9565 1.74854 17.3115 1.93066C18.6882 2.11575 19.7805 2.50313 20.6387 3.36133C21.4969 4.21953 21.8842 5.31182 22.0693 6.68848C22.2515 8.0435 22.25 9.78227 22.25 12C22.25 14.2177 22.2515 15.9565 22.0693 17.3115C21.8842 18.6882 21.4969 19.7805 20.6387 20.6387C19.7805 21.4969 18.6882 21.8842 17.3115 22.0693C15.9565 22.2515 14.2177 22.25 12 22.25C9.78227 22.25 8.0435 22.2515 6.68848 22.0693C5.31182 21.8842 4.21953 21.4969 3.36133 20.6387C2.50313 19.7805 2.11575 18.6882 1.93066 17.3115C1.74854 15.9565 1.75 14.2177 1.75 12C1.75 9.78227 1.74854 8.0435 1.93066 6.68848C2.11575 5.31182 2.50313 4.21953 3.36133 3.36133C4.21953 2.50313 5.31182 2.11575 6.68848 1.93066C8.0435 1.74854 9.78227 1.75 12 1.75ZM12 3.25C9.73963 3.25 8.11959 3.25137 6.88769 3.41699C5.67747 3.57972 4.95489 3.88885 4.42187 4.42187C3.88885 4.95489 3.57972 5.67747 3.41699 6.88769C3.25137 8.11959 3.25 9.73963 3.25 12C3.25 14.2604 3.25137 15.8804 3.41699 17.1123C3.57972 18.3225 3.88885 19.0451 4.42187 19.5781C4.95489 20.1111 5.67747 20.4203 6.88769 20.583C8.11959 20.7486 9.73963 20.75 12 20.75C14.2604 20.75 15.8804 20.7486 17.1123 20.583C18.3225 20.4203 19.0451 20.1111 19.5781 19.5781C20.1111 19.0451 20.4203 18.3225 20.583 17.1123C20.7486 15.8804 20.75 14.2604 20.75 12C20.75 9.73963 20.7486 8.11959 20.583 6.88769C20.4203 5.67747 20.1111 4.95489 19.5781 4.42187C19.0451 3.88885 18.3225 3.57972 17.1123 3.41699C15.8804 3.25137 14.2604 3.25 12 3.25ZM7 9.25C7.41421 9.25 7.75 9.58579 7.75 10V17C7.75 17.4142 7.41421 17.75 7 17.75C6.58579 17.75 6.25 17.4142 6.25 17V10C6.25 9.58579 6.58579 9.25 7 9.25ZM14 9.25C16.0711 9.25 17.75 10.9289 17.75 13V17C17.75 17.4142 17.4142 17.75 17 17.75C16.5858 17.75 16.25 17.4142 16.25 17V13C16.25 11.7574 15.2426 10.75 14 10.75C12.7574 10.75 11.75 11.7574 11.75 13V17C11.75 17.4142 11.4142 17.75 11 17.75C10.5858 17.75 10.25 17.4142 10.25 17V10C10.25 9.58579 10.5858 9.25 11 9.25C11.4142 9.25 11.75 9.58579 11.75 10C12.3768 9.52917 13.1557 9.25 14 9.25ZM7.00781 6C7.5601 6 8.00781 6.44772 8.00781 7C8.00781 7.55228 7.5601 8 7.00781 8H6.99902C6.44674 8 5.99902 7.55228 5.99902 7C5.99902 6.44772 6.44674 6 6.99902 6H7.00781Z" fill="var(--fill-0, #8C9498)"/>
</g>
</svg>
