<svg preserveAspectRatio="none" width="100%" height="100%" overflow="visible" style="display: block;" viewBox="0 0 152.784 63.763" fill="none" xmlns="http://www.w3.org/2000/svg">
<g id="Group">
<path id="Vector" d="M21.4152 54.0444H26.6501H27.3639V18.7259H21.4152V54.0444ZM14.7527 31.763C13.8009 31.763 11.8974 32 10.2317 32.237C8.80404 32.4741 7.37636 32.7111 6.18663 32.7111V31.763H0V62.3407H5.94868V54.0444C6.42457 54.0444 7.13841 54.0444 8.0902 54.0444C9.04199 54.0444 10.2317 54.0444 10.7076 54.0444C13.0871 54.0444 14.7527 53.8074 15.7045 53.3333C17.1322 52.6222 17.6081 51.2 17.6081 49.5407V34.3704C17.6081 32.4741 16.8942 31.763 14.7527 31.763ZM11.8974 48.1185H11.6594C11.6594 49.3037 11.4215 49.7778 9.99378 49.7778H5.94868V36.2667H11.8974V48.1185ZM45.4479 31.763H34.7403C32.5988 31.763 31.409 32.7111 31.409 34.6074V38.8741H36.8818V35.5556H42.8305V41.0074H34.2644C32.1229 41.0074 30.9331 41.9556 30.9331 43.8519V51.437C30.9331 53.3333 32.1229 54.2815 34.2644 54.2815C35.2162 54.2815 36.6439 54.2815 38.3095 54.0444C39.7372 53.8074 40.9269 53.5704 42.3546 53.5704V54.2815H48.0653H48.7792V34.8444C48.5412 32.7111 47.5894 31.763 45.4479 31.763ZM42.8305 50.0148H42.3546L36.6439 50.2519V44.8H42.8305V50.0148ZM66.6252 31.763C65.4355 31.763 64.0078 32 62.3421 32.237C60.9145 32.4741 59.4868 32.7111 58.297 32.7111V31.763H52.3484V54.0444H58.297V36.0296H64.2457V54.0444H70.1944V34.3704C69.9565 32.4741 68.7667 31.763 66.6252 31.763ZM88.0404 31.763H76.8569C74.7154 31.763 73.5257 32.7111 73.5257 34.6074V51.2C73.5257 53.0963 74.7154 54.0444 76.8569 54.0444H88.0404C90.182 54.0444 91.3717 53.0963 91.3717 51.2V34.6074C91.3717 32.7111 90.182 31.763 88.0404 31.763ZM85.423 49.7778H79.4743V36.0296H85.423V49.7778Z" fill="var(--fill-0, #736B68)"/>
<path id="Vector_2" d="M121.591 11.8519C121.115 11.8519 121.115 11.8519 121.591 11.8519Z" fill="var(--fill-0, #F47920)"/>
<path id="Vector_3" d="M148.003 11.6148C144.196 11.6148 124.684 11.6148 121.591 11.6148V11.8519L147.051 16.5926V59.2593H103.745C103.745 40.2963 103.983 23.7037 103.745 4.74074C103.745 4.5037 103.745 4.5037 103.745 4.26667C120.401 2.84444 136.106 1.42222 152.762 0H102.793C99.4619 0 97.7963 1.18519 97.7963 3.79259V59.9704C97.7963 62.5778 99.4619 63.763 102.793 63.763H147.765C151.096 63.763 152.762 62.5778 152.762 59.9704V15.6444C153 13.037 151.334 11.6148 148.003 11.6148Z" fill="var(--fill-0, #F47920)"/>
<path id="Vector_4" d="M121.591 11.6148H112.311V54.2815H131.823C134.202 54.2815 136.344 53.8074 137.771 52.8593C139.199 51.9111 139.913 50.4889 139.913 48.8296V30.1037C139.913 27.9704 137.533 26.7852 134.202 26.7852C132.775 26.7852 130.633 27.0222 128.016 27.2593C125.874 27.4963 123.97 27.7333 121.829 27.9704L130.157 30.5778V46.9333C130.157 48.3556 129.205 49.0667 127.302 49.0667H121.591V27.9704V11.8519C121.591 11.6148 121.115 11.6148 121.591 11.6148Z" fill="var(--fill-0, #F47920)"/>
</g>
</svg>
