<svg preserveAspectRatio="none" width="100%" height="100%" overflow="visible" style="display: block;" viewBox="0 0 120 40" fill="none" xmlns="http://www.w3.org/2000/svg">
<g id="Marca" clip-path="url(#clip0_0_160)">
<path id="Vector" d="M95.8706 12.3594C95.8706 12.3594 95.7759 12.4688 95.8706 12.4844C97.4172 12.7813 100.763 13.6875 103.477 16.375C106.191 19.0625 107.107 22.375 107.407 23.9063C107.407 23.9844 107.533 23.9688 107.533 23.9063V12.3594H95.8864H95.8706Z" fill="var(--fill-0, #98989A)"/>
<path id="Vector_2" d="M119.053 10.8438C117.033 8.73438 113.782 9.46876 112.094 7.84376C110.452 6.15626 111.194 2.95313 109.064 0.953131C108.701 0.593756 108.227 0.265631 107.628 0.0156305C107.58 5.53516e-06 107.533 0.0156305 107.533 0.0781305C107.533 1.23438 107.533 12.375 107.533 12.375C107.533 12.375 118.785 12.375 119.953 12.375C120 12.375 120.032 12.3281 120.016 12.2813C119.748 11.6719 119.432 11.2188 119.069 10.8594L119.053 10.8438Z" fill="var(--fill-0, #98989A)"/>
<path id="Vector_3" d="M13.7612 13.0469C13.2088 12.7656 12.5618 12.5 11.7885 12.2656C11.031 12.0313 10.1473 11.9219 9.15309 11.9219C7.68544 11.9219 6.39138 12.1719 5.25514 12.6875C4.13468 13.1875 3.17203 13.9219 2.38297 14.8438C1.59391 15.7813 0.994226 16.9062 0.599697 18.2187C0.189387 19.5312 -0.0157681 20.9844 -0.0157681 22.5937C-0.0157681 24.2031 0.157825 25.7344 0.710165 27.0156C1.72016 29.3594 4.03999 33.2344 9.20043 33.2344C12.4198 33.2344 13.7138 31.2031 13.7454 31.1562L14.061 32.6406H18.5113V2.5L13.7454 3.28125V13.0625L13.7612 13.0469ZM13.7612 20.7656V27.5312C13.7138 27.6406 12.4198 29.1406 10.2262 29.1406C8.4745 29.1406 7.36982 28.5469 6.3756 27.375C5.38139 26.1875 4.87639 24.5625 4.87639 22.4844C4.87639 20.4062 5.27092 18.9062 6.07576 17.7344C6.8806 16.5625 8.1431 15.9844 9.87902 15.9844C10.6681 15.9844 11.4098 16.1094 12.1042 16.3594C12.7985 16.6094 13.3509 16.875 13.777 17.1562V20.7812L13.7612 20.7656Z" fill="var(--fill-0, #98989A)"/>
<path id="Vector_4" d="M30.3472 11.8438C29.1478 11.8438 27.9642 12.0781 26.8122 12.5313C25.6602 12.9844 24.6344 13.6562 23.7506 14.5625C22.8511 15.4531 22.141 16.5781 21.6044 17.9375C21.0678 19.2813 20.7996 20.8594 20.7996 22.6563C20.7996 24.1875 21.0047 25.5938 21.4308 26.875C21.8569 28.1563 22.4882 29.2813 23.3561 30.2188C24.2241 31.1719 25.3288 31.9063 26.6544 32.4375C27.9958 32.9688 29.5581 33.2344 31.3729 33.2344C32.0831 33.2344 32.7775 33.2031 33.4561 33.125C34.1347 33.0469 34.7659 32.9531 35.3656 32.8281C35.9495 32.7188 36.486 32.5781 36.9437 32.4375C37.4014 32.2969 37.7643 32.1563 38.0326 32.0313L37.4014 28.1719C36.849 28.4063 36.0915 28.625 35.1446 28.8281C34.182 29.0313 33.1247 29.1406 31.9726 29.1406C30 29.1406 28.5008 28.6875 27.475 27.7969C26.4334 26.9063 25.8495 25.6406 25.7233 24H39.2951C39.3267 23.7344 39.3424 23.4531 39.3582 23.125C39.3582 22.7969 39.374 22.5156 39.374 22.25C39.374 18.7969 38.5849 16.2031 36.991 14.4688C35.3971 12.7344 33.1878 11.8594 30.363 11.8594L30.3472 11.8438ZM25.7391 20.5313C25.818 19.9375 25.96 19.3438 26.1652 18.7813C26.3703 18.2031 26.6702 17.7031 27.0489 17.2656C27.4277 16.8281 27.9011 16.4688 28.4377 16.1875C28.99 15.9219 29.637 15.7813 30.363 15.7813C31.0889 15.7813 31.6728 15.9063 32.1936 16.1563C32.6986 16.4063 33.1404 16.7344 33.4876 17.1719C33.8348 17.5938 34.1031 18.1094 34.2925 18.6875C34.4818 19.2656 34.5607 19.8906 34.5607 20.5313H25.7075H25.7391Z" fill="var(--fill-0, #98989A)"/>
<path id="Vector_5" d="M54.6344 23.2344C54.1294 22.7344 53.4666 22.2812 52.6933 21.875C51.9043 21.4687 50.9416 21.0625 49.8211 20.6406C49.1425 20.4062 48.5586 20.1875 48.0852 19.9531C47.6118 19.7344 47.233 19.5156 46.949 19.2969C46.6649 19.0781 46.4598 18.8437 46.3335 18.5781C46.223 18.3125 46.1599 18.0156 46.1599 17.6875C46.1599 17.0156 46.4598 16.5156 47.0594 16.1875C47.6591 15.8594 48.4482 15.7031 49.4266 15.7031C50.4997 15.7031 51.4466 15.7969 52.2514 16C53.0563 16.1875 53.7349 16.4062 54.2556 16.6406L55.1236 12.8281C54.5713 12.625 53.7506 12.4062 52.646 12.1875C51.5413 11.9687 50.3893 11.8594 49.1899 11.8594C46.8069 11.8594 44.9132 12.4062 43.5245 13.4687C42.1357 14.5469 41.4413 16.0156 41.4413 17.8906C41.4413 18.8437 41.5992 19.6562 41.899 20.3281C42.1988 20.9844 42.6092 21.5625 43.1457 22.0156C43.6665 22.4844 44.2977 22.8906 45.0079 23.25C45.7338 23.5937 46.5229 23.9375 47.3908 24.25C48.8111 24.7656 49.8211 25.25 50.4366 25.6875C51.0521 26.125 51.3677 26.6875 51.3677 27.3594C51.3677 28.0937 51.0836 28.5937 50.4997 28.8906C49.9158 29.1875 49.0005 29.3437 47.7538 29.3437C46.5071 29.3437 45.3709 29.2187 44.3924 28.9531C43.414 28.6875 42.5618 28.4219 41.8517 28.1406L41.031 32.0781C41.4729 32.2656 42.2462 32.5 43.3509 32.7969C44.4555 33.0937 45.9074 33.25 47.7222 33.25C50.4208 33.25 52.5039 32.75 53.9558 31.75C55.4077 30.75 56.1336 29.2812 56.1336 27.3281C56.1336 26.4219 56.0231 25.6406 55.7864 24.9844C55.5497 24.3281 55.1709 23.75 54.666 23.25L54.6344 23.2344Z" fill="var(--fill-0, #98989A)"/>
<path id="Vector_6" d="M68.7428 28.8594C68.08 29.0469 67.3067 29.125 66.4387 29.125C65.1762 29.125 64.2925 28.7812 63.7717 28.0781C63.2509 27.375 62.9826 26.2031 62.9826 24.5781V16.2812H70.3051V12.3437H62.9826V6.20312L58.2167 6.98437V24.625C58.2167 25.9687 58.3272 27.1719 58.5639 28.2344C58.8006 29.2812 59.2109 30.1875 59.7791 30.9219C60.363 31.6562 61.1362 32.2344 62.1147 32.6094C63.0931 33 64.324 33.1875 65.7917 33.1875C66.991 33.1875 68.0484 33.0625 68.9321 32.8125C69.8159 32.5625 70.5418 32.3281 71.0942 32.0937L70.3051 28.3594C69.9106 28.5156 69.374 28.6875 68.7112 28.8594H68.7428Z" fill="var(--fill-0, #98989A)"/>
<path id="Vector_7" d="M84.7764 19.9219C84.0505 22.5313 83.2614 24.9844 82.425 27.2969C81.92 26.1875 81.4308 24.9688 80.9258 23.6719C80.4208 22.375 79.9474 21.0625 79.5055 19.75C79.0636 18.4375 78.6375 17.1406 78.2588 15.875C77.8801 14.6094 77.5486 13.4219 77.2961 12.3281H72.2146C73.2877 16.125 74.5187 19.7031 75.9074 23.0781C77.2961 26.4531 78.7322 29.5625 80.2314 32.4219C79.7107 33.6406 79.0952 34.5469 78.4008 35.125C77.7065 35.7031 76.728 36 75.4971 36C74.5818 36 73.6349 35.8125 72.6881 35.4531L71.8201 39.2344C72.1831 39.4219 72.7354 39.5781 73.4613 39.7344C74.1873 39.8906 74.9132 39.9688 75.6391 39.9688C76.7438 39.9688 77.7065 39.8438 78.5586 39.5938C79.395 39.3438 80.1525 38.9531 80.8469 38.4063C81.5255 37.8594 82.141 37.1719 82.6933 36.3438C83.2456 35.5156 83.7822 34.5156 84.303 33.3438C87.0962 27.0625 89.5581 20.0469 91.6886 12.3125H86.7648C86.1652 14.75 85.5024 17.2813 84.7606 19.8906L84.7764 19.9219Z" fill="var(--fill-0, #98989A)"/>
</g>
<defs>
<clipPath id="clip0_0_160">
<rect width="120" height="40" fill="white"/>
</clipPath>
</defs>
</svg>
