<svg preserveAspectRatio="none" width="100%" height="100%" overflow="visible" style="display: block;" viewBox="0 0 89 27.9414" fill="none" xmlns="http://www.w3.org/2000/svg">
<path id="DanTrindade_Logo" d="M21.6084 16.4922L10.8047 27.9414L0 16.4922L3.6377 0L10.8594 6.4043L18.0254 0L21.6084 16.4922ZM5.95312 12.2422L10.8047 25.4473L15.6553 12.2422L10.8047 7.93457L5.95312 12.2422ZM1.43359 16.3223L9.37109 24.7109L5.07129 13.0918L1.43359 16.3223ZM12.293 24.7109L20.1748 16.3789L16.5371 13.0918L12.293 24.7109ZM38.8037 15.7803C40.1781 15.7804 41.2665 16.9164 41.2666 18.2793C41.2665 19.2447 40.6362 20.3237 39.6055 20.4941L39.376 20.5518L41.209 24.2432V24.2998H39.7197L36.9131 18.3359V24.1865H35.4814V15.7803H38.8037ZM33.6025 17.2568H31.1396V24.2432H29.708V17.2568H27.2451V15.8369H33.6025V17.2568ZM46.4668 17.2568H45.5508V22.8232H46.4668V24.2432H43.1455V22.8232H44.0615V17.2568H43.1455V15.8369H46.4668V17.2568ZM53.7871 20.9492V15.8369H55.2188V24.2432H54.9893L49.7783 18.9609V24.2432H48.3457V15.8369H48.6895L53.7871 20.9492ZM59.3887 15.8369C59.9614 15.8369 60.5344 15.9506 61.0498 16.1777C61.5652 16.4049 62.023 16.6894 62.4238 17.0869C62.8247 17.4845 63.1117 17.9391 63.3408 18.4502C63.5697 18.9611 63.6845 19.529 63.6846 20.0967C63.6845 20.6645 63.5699 21.2331 63.3408 21.7441C63.1118 22.2551 62.825 22.7092 62.4814 22.9932C62.0233 23.3907 61.6219 23.732 61.1064 23.9023C60.5912 24.1293 60.0187 24.2431 59.4463 24.2432H57.0977V15.8369H59.3887ZM73.043 23.959V24.2432H64.624V24.0156L68.8047 15.8369H69.1484L73.043 23.959ZM77.2695 15.8369C77.8422 15.8369 78.4153 15.9506 78.9307 16.1777C79.4461 16.4049 79.9048 16.6894 80.3057 17.0869C80.7064 17.4844 80.9926 17.9392 81.2217 18.4502C81.4506 18.9612 81.5654 19.529 81.5654 20.0967C81.5654 20.6646 81.4507 21.233 81.2217 21.7441C80.9927 22.255 80.7063 22.7092 80.3057 22.9932C79.8475 23.3907 79.4461 23.732 78.9307 23.9023C78.4153 24.1295 77.8422 24.2432 77.2695 24.2432H74.9219V15.8369H77.2695ZM89 17.2568H84.876V19.1885H88.2549V20.6084H84.876V22.8232H88.9424V24.2432H83.4443V15.8369H89V17.2568ZM59.0449 22.8799H59.3887C60.935 22.8799 62.1952 21.6301 62.1953 20.0967C62.1952 19.4153 61.9082 18.7337 61.4502 18.2227L61.2783 18.0527L59.0449 22.8799ZM76.9834 22.8799H77.3271C78.8734 22.8799 80.1337 21.6301 80.1338 20.0967C80.1337 19.4153 79.8467 18.7337 79.3887 18.2227L79.2168 18.0527L76.9834 22.8799ZM66.9141 22.8232H70.9238L68.9766 18.7344L66.9141 22.8232ZM58.4727 22.71L60.8203 17.7119L60.7061 17.6553C60.3051 17.4281 59.8469 17.3145 59.3887 17.3145H58.4727V22.71ZM76.3535 22.71L78.7021 17.7119L78.5869 17.6553C78.186 17.4281 77.7277 17.3145 77.2695 17.3145H76.3535V22.71ZM38.8037 19.3584L38.918 19.3018C39.4334 19.245 39.8339 18.7904 39.834 18.2793C39.8338 17.7115 39.3763 17.2569 38.8037 17.2568H37.7725L38.8037 19.3584ZM1.54395 14.7354L9.97754 7.19727L4.35449 2.15332L1.54395 14.7354ZM11.6865 7.19727L20.1201 14.7354L17.3086 2.15332L11.6865 7.19727ZM29.5938 3.6416C30.1664 3.64162 30.7395 3.75526 31.2549 3.98242C31.7129 4.20957 32.1715 4.49318 32.5723 4.89062C32.9731 5.28812 33.2592 5.74286 33.4883 6.25391C33.7173 6.76502 33.832 7.33348 33.832 7.90137C33.832 8.46905 33.7172 9.03691 33.4883 9.54785C33.2592 10.0589 32.9725 10.5139 32.6289 10.7979C32.171 11.1952 31.77 11.5357 31.2549 11.7061C30.7395 11.9332 30.1664 12.0469 29.5938 12.0469H27.2451V3.6416H29.5938ZM43.248 11.7637V12.0469H34.7715V11.8203L38.9521 3.6416H39.2959L43.248 11.7637ZM50.5674 8.75293V3.6416H51.999V12.0469H51.7705L46.6162 6.76562V12.0469H45.127V3.6416H45.4707L50.5674 8.75293ZM29.25 10.6846H29.5938C31.1399 10.6845 32.3429 9.43463 32.4004 7.90137C32.4004 7.21994 32.1133 6.53847 31.6553 6.02734L31.4834 5.85645L29.25 10.6846ZM37.0625 10.627H41.0713L39.124 6.53809L37.0625 10.627ZM28.6201 10.5137L30.9678 5.51562L30.8535 5.45898C30.4526 5.23184 29.9943 5.11816 29.5361 5.11816H28.6201V10.5137Z" fill="var(--fill-0, #23282B)"/>
</svg>
