<svg preserveAspectRatio="none" width="100%" height="100%" overflow="visible" style="display: block;" viewBox="0 0 190.731 79.7037" fill="none" xmlns="http://www.w3.org/2000/svg">
<g id="Group">
<path id="Vector" d="M26.7341 67.5556H33.2691H34.1602V23.4074H26.7341V67.5556ZM18.4168 39.7037C17.2286 39.7037 14.8523 40 12.7729 40.2963C10.9907 40.5926 9.2084 40.8889 7.72317 40.8889V39.7037H0V77.9259H7.42613V67.5556C8.02022 67.5556 8.91135 67.5556 10.0995 67.5556C11.2877 67.5556 12.7729 67.5556 13.367 67.5556C16.3375 67.5556 18.4168 67.2593 19.605 66.6667C21.3872 65.7778 21.9813 64 21.9813 61.9259V42.963C21.9813 40.5926 21.0902 39.7037 18.4168 39.7037ZM14.8523 60.1481H14.5552C14.5552 61.6296 14.2582 62.2222 12.4759 62.2222H7.42613V45.3333H14.8523V60.1481ZM56.7356 39.7037H43.3686C40.6952 39.7037 39.21 40.8889 39.21 43.2593V48.5926H46.042V44.4444H53.4681V51.2593H42.7745C40.1011 51.2593 38.6159 52.4444 38.6159 54.8148V64.2963C38.6159 66.6667 40.1011 67.8519 42.7745 67.8519C43.9627 67.8519 45.7449 67.8519 47.8243 67.5556C49.6065 67.2593 51.0918 66.963 52.874 66.963V67.8519H60.0031H60.8942V43.5556C60.5972 40.8889 59.409 39.7037 56.7356 39.7037ZM53.4681 62.5185H52.874L45.7449 62.8148V56H53.4681V62.5185ZM83.1726 39.7037C81.6874 39.7037 79.9051 40 77.8258 40.2963C76.0436 40.5926 74.2613 40.8889 72.7761 40.8889V39.7037H65.3499V67.5556H72.7761V45.037H80.2022V67.5556H87.6283V42.963C87.3313 40.5926 85.846 39.7037 83.1726 39.7037ZM109.907 39.7037H95.9456C93.2722 39.7037 91.7869 40.8889 91.7869 43.2593V64C91.7869 66.3704 93.2722 67.5556 95.9456 67.5556H109.907C112.58 67.5556 114.065 66.3704 114.065 64V43.2593C114.065 40.8889 112.58 39.7037 109.907 39.7037ZM106.639 62.2222H99.2131V45.037H106.639V62.2222Z" fill="var(--fill-0, #736B68)"/>
<path id="Vector_2" d="M151.79 14.8148C151.196 14.8148 151.196 14.8148 151.79 14.8148Z" fill="var(--fill-0, #F47920)"/>
<path id="Vector_3" d="M184.762 14.5185C180.009 14.5185 155.652 14.5185 151.79 14.5185V14.8148L183.574 20.7407V74.0741H129.512C129.512 50.3704 129.809 29.6296 129.512 5.92593C129.512 5.62963 129.512 5.62963 129.512 5.33333C150.305 3.55556 169.91 1.77778 190.703 2.20758e-09H128.323C124.165 2.20758e-09 122.086 1.48148 122.086 4.74074V74.963C122.086 78.2222 124.165 79.7037 128.323 79.7037H184.465C188.624 79.7037 190.703 78.2222 190.703 74.963V19.5556C191 16.2963 188.921 14.5185 184.762 14.5185Z" fill="var(--fill-0, #F47920)"/>
<path id="Vector_4" d="M151.79 14.5185H140.205V67.8519H164.563C167.533 67.8519 170.207 67.2593 171.989 66.0741C173.771 64.8889 174.663 63.1111 174.663 61.037V37.6296C174.663 34.963 171.692 33.4815 167.533 33.4815C165.751 33.4815 163.078 33.7778 159.81 34.0741C157.137 34.3704 154.761 34.6667 152.087 34.963L162.484 38.2222V58.6667C162.484 60.4445 161.295 61.3333 158.919 61.3333H151.79V34.963V14.8148C151.79 14.5185 151.196 14.5185 151.79 14.5185Z" fill="var(--fill-0, #F47920)"/>
</g>
</svg>
