<svg preserveAspectRatio="none" width="100%" height="100%" overflow="visible" style="display: block;" viewBox="0 0 156 52" fill="none" xmlns="http://www.w3.org/2000/svg">
<g id="Marca" clip-path="url(#clip0_0_152)">
<path id="Vector" d="M124.632 16.0672C124.632 16.0672 124.509 16.2094 124.632 16.2297C126.642 16.6156 130.992 17.7938 134.52 21.2875C138.049 24.7813 139.239 29.0875 139.629 31.0781C139.629 31.1797 139.793 31.1594 139.793 31.0781V16.0672H124.652H124.632Z" fill="var(--fill-0, #E23C51)"/>
<path id="Vector_2" d="M154.769 14.0969C152.143 11.3547 147.917 12.3094 145.722 10.1969C143.588 8.00313 144.552 3.83907 141.783 1.23907C141.311 0.771882 140.695 0.34532 139.916 0.0203197C139.854 7.19806e-06 139.793 0.0203197 139.793 0.10157C139.793 1.60469 139.793 16.0875 139.793 16.0875C139.793 16.0875 154.42 16.0875 155.938 16.0875C156 16.0875 156.041 16.0266 156.021 15.9656C155.672 15.1734 155.261 14.5844 154.79 14.1172L154.769 14.0969Z" fill="var(--fill-0, #E23C51)"/>
<path id="Vector_3" d="M17.8895 16.9609C17.1715 16.5953 16.3304 16.25 15.3251 15.9453C14.3404 15.6406 13.1915 15.4984 11.899 15.4984C9.99107 15.4984 8.3088 15.8234 6.83168 16.4938C5.37508 17.1438 4.12364 18.0984 3.09786 19.2969C2.07208 20.5156 1.29249 21.9781 0.779606 23.6844C0.246203 25.3906 -0.0204986 27.2797 -0.0204986 29.3719C-0.0204986 31.4641 0.205172 33.4547 0.923215 35.1203C2.23621 38.1672 5.25199 43.2047 11.9606 43.2047C16.1457 43.2047 17.828 40.5641 17.869 40.5031L18.2793 42.4328H24.0647V3.25L17.869 4.26563V16.9813L17.8895 16.9609ZM17.8895 26.9953V35.7906C17.828 35.9328 16.1457 37.8828 13.2941 37.8828C11.0168 37.8828 9.58076 37.1109 8.28829 35.5875C6.99581 34.0437 6.33931 31.9312 6.33931 29.2297C6.33931 26.5281 6.8522 24.5781 7.89849 23.0547C8.94478 21.5313 10.586 20.7797 12.8427 20.7797C13.8685 20.7797 14.8327 20.9422 15.7354 21.2672C16.6381 21.5922 17.3561 21.9375 17.9101 22.3031V27.0156L17.8895 26.9953Z" fill="var(--fill-0, #E23C51)"/>
<path id="Vector_4" d="M39.4513 15.3969C37.8921 15.3969 36.3535 15.7016 34.8558 16.2906C33.3582 16.8797 32.0247 17.7531 30.8758 18.9313C29.7065 20.0891 28.7833 21.5516 28.0857 23.3188C27.3882 25.0656 27.0394 27.1172 27.0394 29.4531C27.0394 31.4438 27.3061 33.2719 27.8601 34.9375C28.414 36.6031 29.2346 38.0656 30.363 39.2844C31.4913 40.5234 32.9274 41.4781 34.6507 42.1688C36.3945 42.8594 38.4255 43.2047 40.7848 43.2047C41.708 43.2047 42.6107 43.1641 43.4929 43.0625C44.375 42.9609 45.1957 42.8391 45.9753 42.6766C46.7343 42.5344 47.4319 42.3516 48.0268 42.1688C48.6218 41.9859 49.0936 41.8031 49.4424 41.6406L48.6218 36.6234C47.9037 36.9281 46.919 37.2125 45.688 37.4766C44.4366 37.7406 43.0621 37.8828 41.5644 37.8828C39 37.8828 37.051 37.2938 35.7175 36.1359C34.3635 34.9781 33.6044 33.3328 33.4403 31.2H51.0836C51.1246 30.8547 51.1452 30.4891 51.1657 30.0625C51.1657 29.6359 51.1862 29.2703 51.1862 28.925C51.1862 24.4359 50.1604 21.0641 48.0884 18.8094C46.0163 16.5547 43.1441 15.4172 39.4718 15.4172L39.4513 15.3969ZM33.4608 26.6906C33.5634 25.9188 33.748 25.1469 34.0147 24.4156C34.2814 23.6641 34.6712 23.0141 35.1636 22.4453C35.656 21.8766 36.2714 21.4094 36.9689 21.0438C37.687 20.6984 38.5281 20.5156 39.4718 20.5156C40.4156 20.5156 41.1746 20.6781 41.8516 21.0031C42.5081 21.3281 43.0826 21.7547 43.5339 22.3234C43.9853 22.8719 44.334 23.5422 44.5802 24.2938C44.8264 25.0453 44.929 25.8578 44.929 26.6906H33.4198H33.4608Z" fill="var(--fill-0, #E23C51)"/>
<path id="Vector_5" d="M71.0247 30.2047C70.3682 29.5547 69.5066 28.9656 68.5013 28.4375C67.4755 27.9094 66.2241 27.3812 64.7675 26.8328C63.8853 26.5281 63.1262 26.2437 62.5108 25.9391C61.8953 25.6547 61.4029 25.3703 61.0337 25.0859C60.6644 24.8016 60.3977 24.4969 60.2336 24.1516C60.0899 23.8062 60.0079 23.4203 60.0079 22.9937C60.0079 22.1203 60.3977 21.4703 61.1773 21.0437C61.9569 20.6172 62.9826 20.414 64.2546 20.414C65.6496 20.414 66.8806 20.5359 67.9269 20.8C68.9732 21.0437 69.8553 21.3281 70.5323 21.6328L71.6607 16.6765C70.9426 16.4125 69.8758 16.1281 68.4398 15.8437C67.0037 15.5594 65.506 15.4172 63.9469 15.4172C60.849 15.4172 58.3872 16.1281 56.5818 17.5094C54.7764 18.9109 53.8738 20.8203 53.8738 23.2578C53.8738 24.4969 54.0789 25.5531 54.4687 26.4266C54.8585 27.2797 55.3919 28.0312 56.0894 28.6203C56.7664 29.2297 57.5871 29.7578 58.5103 30.225C59.454 30.6719 60.4797 31.1187 61.6081 31.525C63.4545 32.1953 64.7675 32.825 65.5676 33.3937C66.3677 33.9625 66.778 34.6937 66.778 35.5672C66.778 36.5219 66.4087 37.1719 65.6496 37.5578C64.8906 37.9437 63.7007 38.1469 62.08 38.1469C60.4592 38.1469 58.9821 37.9844 57.7101 37.6391C56.4382 37.2937 55.3304 36.9484 54.4072 36.5828L53.3403 41.7016C53.9148 41.9453 54.92 42.25 56.3561 42.6359C57.7922 43.0219 59.6796 43.225 62.0389 43.225C65.5471 43.225 68.2551 42.575 70.1425 41.275C72.03 39.975 72.9737 38.0656 72.9737 35.5266C72.9737 34.3484 72.8301 33.3328 72.5223 32.4797C72.2146 31.6266 71.7222 30.875 71.0657 30.225L71.0247 30.2047Z" fill="var(--fill-0, #E23C51)"/>
<path id="Vector_6" d="M89.3656 37.5172C88.5039 37.7609 87.4987 37.8625 86.3703 37.8625C84.7291 37.8625 83.5802 37.4156 82.9032 36.5016C82.2262 35.5875 81.8774 34.0641 81.8774 31.9516V21.1656H91.3966V16.0469H81.8774V8.06406L75.6817 9.07969V32.0125C75.6817 33.7594 75.8253 35.3234 76.1331 36.7047C76.4408 38.0656 76.9742 39.2437 77.7128 40.1984C78.4718 41.1531 79.4771 41.9047 80.7491 42.3922C82.021 42.9 83.6212 43.1437 85.5292 43.1437C87.0884 43.1437 88.4629 42.9812 89.6118 42.6562C90.7606 42.3312 91.7044 42.0266 92.4224 41.7219L91.3966 36.8672C90.8837 37.0703 90.1862 37.2937 89.3246 37.5172H89.3656Z" fill="var(--fill-0, #E23C51)"/>
<path id="Vector_7" d="M110.209 25.8984C109.266 29.2906 108.24 32.4797 107.153 35.4859C106.496 34.0438 105.86 32.4594 105.204 30.7734C104.547 29.0875 103.932 27.3813 103.357 25.675C102.783 23.9688 102.229 22.2828 101.736 20.6375C101.244 18.9922 100.813 17.4484 100.485 16.0266H93.879C95.274 20.9625 96.8743 25.6141 98.6796 30.0016C100.485 34.3891 102.352 38.4313 104.301 42.1484C103.624 43.7328 102.824 44.9109 101.921 45.6625C101.018 46.4141 99.7464 46.8 98.1462 46.8C96.9563 46.8 95.7254 46.5563 94.4945 46.0891L93.3661 51.0047C93.838 51.2484 94.556 51.4516 95.4997 51.6547C96.4434 51.8578 97.3871 51.9594 98.3309 51.9594C99.7669 51.9594 101.018 51.7969 102.126 51.4719C103.214 51.1469 104.198 50.6391 105.101 49.9281C105.983 49.2172 106.783 48.3234 107.501 47.2469C108.219 46.1703 108.917 44.8703 109.594 43.3469C113.225 35.1813 116.426 26.0609 119.195 16.0063H112.794C112.015 19.175 111.153 22.4656 110.189 25.8578L110.209 25.8984Z" fill="var(--fill-0, #E23C51)"/>
</g>
<defs>
<clipPath id="clip0_0_152">
<rect width="156" height="52" fill="white"/>
</clipPath>
</defs>
</svg>
