<svg preserveAspectRatio="none" width="100%" height="100%" overflow="visible" style="display: block;" viewBox="0 0 24 24" fill="none" xmlns="http://www.w3.org/2000/svg">
<g id="file-02">
<path id="Union" d="M11.4561 1.2499C12.1092 1.2499 12.6146 1.24045 13.0869 1.40713C13.1792 1.4397 13.2701 1.47721 13.3584 1.51943C13.8101 1.73556 14.1604 2.0997 14.6221 2.56142L19.3584 7.29775C19.8932 7.83251 20.3184 8.23889 20.541 8.77627C20.7634 9.31356 20.75 9.90105 20.75 10.6571V13.9999C20.75 15.8643 20.7514 17.3383 20.5967 18.4892C20.439 19.6614 20.1067 20.61 19.3584 21.3583C18.6101 22.1066 17.6616 22.4389 16.4893 22.5966C15.3384 22.7513 13.8644 22.7499 12 22.7499C10.1356 22.7499 8.66159 22.7513 7.51074 22.5966C6.33844 22.4389 5.38991 22.1066 4.6416 21.3583C3.89333 20.61 3.56096 19.6614 3.40332 18.4892C3.24861 17.3383 3.25 15.8643 3.25 13.9999V9.45596C3.25 7.8517 3.24922 6.58313 3.36621 5.58096C3.48511 4.56271 3.73395 3.72279 4.30176 3.01846C4.51431 2.75484 4.75493 2.51421 5.01855 2.30166C5.7229 1.73387 6.56279 1.485 7.58105 1.36611C8.58325 1.24912 9.85176 1.2499 11.4561 1.2499ZM11.4561 2.7499C9.81549 2.7499 8.6499 2.75088 7.75488 2.85537C6.87607 2.95798 6.35453 3.15153 5.95996 3.46963C5.77959 3.61505 5.61516 3.7795 5.46973 3.95986C5.15162 4.35442 4.95808 4.876 4.85547 5.75478C4.75098 6.64978 4.75 7.81544 4.75 9.45596V13.9999C4.75 15.9066 4.75151 17.2613 4.88965 18.289C5.02491 19.295 5.27897 19.8745 5.70215 20.2978C6.12536 20.721 6.70486 20.975 7.71094 21.1103C8.73859 21.2484 10.0932 21.2499 12 21.2499C13.9068 21.2499 15.2614 21.2484 16.2891 21.1103C17.2951 20.975 17.8746 20.721 18.2979 20.2978C18.721 19.8745 18.9751 19.295 19.1104 18.289C19.2485 17.2613 19.25 15.9066 19.25 13.9999V10.6571C19.25 10.2193 19.2468 9.94196 19.2334 9.7499H19C17.6071 9.7499 16.4869 9.75178 15.6084 9.63369C14.7083 9.51267 13.9505 9.25318 13.3486 8.65127C12.7468 8.04936 12.4872 7.29159 12.3662 6.3915C12.2481 5.51301 12.25 4.39276 12.25 2.9999V2.7626C12.0832 2.75197 11.8419 2.7499 11.4561 2.7499ZM16 16.2499C16.4142 16.2499 16.7499 16.5857 16.75 16.9999C16.75 17.4141 16.4142 17.7499 16 17.7499H8C7.58579 17.7499 7.25 17.4141 7.25 16.9999C7.25005 16.5857 7.58582 16.2499 8 16.2499H16ZM12 12.2499C12.4142 12.2499 12.7499 12.5857 12.75 12.9999C12.75 13.4141 12.4142 13.7499 12 13.7499H8C7.58579 13.7499 7.25 13.4141 7.25 12.9999C7.25005 12.5857 7.58582 12.2499 8 12.2499H12ZM13.751 3.81142C13.7546 4.82609 13.7724 5.58728 13.8535 6.19131C13.9522 6.92504 14.1324 7.31396 14.4092 7.59072C14.6859 7.86748 15.0748 8.04773 15.8086 8.14639C16.4124 8.22753 17.1733 8.24428 18.1875 8.24795L13.751 3.81142Z" fill="var(--fill-0, #8C9498)"/>
</g>
</svg>
