<svg preserveAspectRatio="none" width="100%" height="100%" overflow="visible" style="display: block;" viewBox="0 0 24 24" fill="none" xmlns="http://www.w3.org/2000/svg">
<g id="computer-phone-sync">
<path id="Union" d="M16 2.25C17.3929 2.25 18.5131 2.24812 19.3916 2.36621C20.2917 2.48723 21.0494 2.74672 21.6514 3.34863C22.216 3.91327 22.4791 4.61553 22.6094 5.44531C22.7361 6.25334 22.7485 7.26383 22.75 8.49902C22.7505 8.91315 22.4151 9.24935 22.001 9.25C21.5868 9.2505 21.2505 8.91516 21.25 8.50097C21.2485 7.23793 21.2333 6.34946 21.1279 5.67773C21.026 5.02826 20.8513 4.66967 20.5908 4.40918C20.3141 4.13242 19.9252 3.95217 19.1914 3.85351C18.4361 3.75202 17.4351 3.75 16 3.75H8C6.56485 3.75 5.56389 3.75202 4.80859 3.85351C4.07482 3.95217 3.68594 4.13242 3.40918 4.40918C3.13242 4.68594 2.95217 5.07482 2.85351 5.80859C2.75202 6.56389 2.75 7.56485 2.75 9V11C2.75 12.4351 2.75202 13.4361 2.85351 14.1914C2.95217 14.9252 3.13242 15.3141 3.40918 15.5908C3.68594 15.8676 4.07482 16.0478 4.80859 16.1465C5.56389 16.248 6.56485 16.25 8 16.25H12.5C12.9142 16.25 13.25 16.5858 13.25 17V21C13.25 21.4142 12.9142 21.75 12.5 21.75H8C7.58579 21.75 7.25 21.4142 7.25 21C7.25 20.5858 7.58579 20.25 8 20.25H10C10.4142 20.25 10.75 19.9142 10.75 19.5V17.75H8C6.60709 17.75 5.4869 17.7519 4.6084 17.6338C3.70829 17.5128 2.95055 17.2533 2.34863 16.6514C1.74672 16.0494 1.48723 15.2917 1.36621 14.3916C1.24812 13.5131 1.25 12.3929 1.25 11V9C1.25 7.60709 1.24812 6.4869 1.36621 5.6084C1.48723 4.70829 1.74671 3.95055 2.34863 3.34863C2.95055 2.74671 3.70829 2.48723 4.6084 2.36621C5.4869 2.24812 6.60709 2.25 8 2.25H16ZM19 10.25C19.6859 10.25 20.276 10.2483 20.7461 10.3115C21.2376 10.3776 21.7086 10.527 22.0908 10.9092C22.473 11.2914 22.6224 11.7624 22.6885 12.2539C22.7517 12.724 22.75 13.3141 22.75 14V18C22.75 18.6859 22.7517 19.276 22.6885 19.7461C22.6224 20.2376 22.473 20.7086 22.0908 21.0908C21.7086 21.473 21.2376 21.6224 20.7461 21.6885C20.276 21.7517 19.6859 21.75 19 21.75C18.3141 21.75 17.724 21.7517 17.2539 21.6885C16.7624 21.6224 16.2914 21.473 15.9092 21.0908C15.527 20.7086 15.3776 20.2376 15.3115 19.7461C15.2483 19.276 15.25 18.6859 15.25 18V14C15.25 13.3141 15.2483 12.724 15.3115 12.2539C15.3776 11.7624 15.527 11.2914 15.9092 10.9092C16.2914 10.527 16.7624 10.3776 17.2539 10.3115C17.724 10.2483 18.3141 10.25 19 10.25ZM19 11.75C18.2718 11.75 17.801 11.7512 17.4541 11.7978C17.1288 11.8416 17.0268 11.9126 16.9697 11.9697C16.9126 12.0268 16.8416 12.1288 16.7978 12.4541C16.7512 12.801 16.75 13.2718 16.75 14V18C16.75 18.7282 16.7512 19.199 16.7978 19.5459C16.8416 19.8712 16.9126 19.9732 16.9697 20.0303C17.0268 20.0874 17.1288 20.1584 17.4541 20.2021C17.801 20.2488 18.2718 20.25 19 20.25C19.7282 20.25 20.199 20.2488 20.5459 20.2021C20.8712 20.1584 20.9732 20.0874 21.0303 20.0303C21.0874 19.9732 21.1584 19.8712 21.2021 19.5459C21.2488 19.199 21.25 18.7282 21.25 18V14C21.25 13.2718 21.2488 12.801 21.2021 12.4541C21.1584 12.1288 21.0874 12.0268 21.0303 11.9697C20.9732 11.9126 20.8712 11.8416 20.5459 11.7978C20.199 11.7512 19.7282 11.75 19 11.75Z" fill="var(--fill-0, #8C9498)"/>
</g>
</svg>
