<svg preserveAspectRatio="none" width="100%" height="100%" overflow="visible" style="display: block;" viewBox="0 0 24 24" fill="none" xmlns="http://www.w3.org/2000/svg">
<g id="live-streaming-03">
<path id="Union" d="M9.5 3.75C11.1254 3.75 12.4104 3.74923 13.4248 3.86914C14.4557 3.99101 15.3047 4.24633 16.0137 4.82812C16.2541 5.02544 16.4746 5.24592 16.6719 5.48633C17.2537 6.19525 17.509 7.04427 17.6309 8.0752C17.6586 8.30948 17.679 8.55825 17.6953 8.82227L19 7.08301C19.3935 6.55854 20.0113 6.25 20.667 6.25C21.8173 6.25018 22.7498 7.18267 22.75 8.33301V15.667C22.7498 16.8173 21.8173 17.7498 20.667 17.75C20.0932 17.75 19.548 17.5141 19.1572 17.1035L19 16.917L17.6953 15.1768C17.679 15.4411 17.6586 15.6902 17.6309 15.9248C17.509 16.9557 17.2537 17.8047 16.6719 18.5137C16.4746 18.7541 16.2541 18.9746 16.0137 19.1719C15.3047 19.7537 14.4557 20.009 13.4248 20.1309C12.4104 20.2508 11.1254 20.25 9.5 20.25C7.87463 20.25 6.58961 20.2508 5.5752 20.1309C4.54427 20.009 3.69525 19.7537 2.98633 19.1719C2.74592 18.9746 2.52544 18.7541 2.32812 18.5137C1.74633 17.8047 1.49101 16.9557 1.36914 15.9248C1.24923 14.9104 1.25 13.6254 1.25 12C1.25 10.3746 1.24923 9.08961 1.36914 8.0752C1.49101 7.04427 1.74633 6.19525 2.32812 5.48633C2.52544 5.24592 2.74592 5.02544 2.98633 4.82812C3.69525 4.24633 4.54427 3.99101 5.5752 3.86914C6.58961 3.74923 7.87463 3.75 9.5 3.75ZM9.5 5.25C7.83789 5.25 6.65689 5.25132 5.75098 5.3584C4.8621 5.4635 4.33578 5.66138 3.93848 5.9873C3.77392 6.12236 3.62236 6.27392 3.4873 6.43848C3.16138 6.83578 2.9635 7.3621 2.8584 8.25098C2.75132 9.15689 2.75 10.3379 2.75 12C2.75 13.6621 2.75132 14.8431 2.8584 15.749C2.9635 16.6379 3.16138 17.1642 3.4873 17.5615C3.62236 17.7261 3.77391 17.8776 3.93848 18.0127C4.33578 18.3386 4.8621 18.5365 5.75098 18.6416C6.65689 18.7487 7.83789 18.75 9.5 18.75C11.1621 18.75 12.3431 18.7487 13.249 18.6416C14.1379 18.5365 14.6642 18.3386 15.0615 18.0127C15.2261 17.8776 15.3776 17.7261 15.5127 17.5615C15.8386 17.1642 16.0365 16.6379 16.1416 15.749C16.2487 14.8431 16.25 13.6621 16.25 12C16.25 10.3379 16.2487 9.15689 16.1416 8.25098C16.0365 7.3621 15.8386 6.83578 15.5127 6.43848C15.3776 6.27391 15.2261 6.12236 15.0615 5.9873C14.6642 5.66138 14.1379 5.4635 13.249 5.3584C12.3431 5.25132 11.1621 5.25 9.5 5.25ZM20.667 7.75C20.4834 7.75 20.3104 7.83654 20.2002 7.9834L17.75 11.249V12.75L20.2002 16.0166C20.3104 16.1635 20.4834 16.25 20.667 16.25C20.9889 16.2498 21.2498 15.9889 21.25 15.667V8.33301C21.2498 8.0111 20.9889 7.75018 20.667 7.75ZM9.5 9.75C10.7426 9.75 11.75 10.7574 11.75 12C11.75 13.2426 10.7426 14.25 9.5 14.25C8.25736 14.25 7.25 13.2426 7.25 12C7.25 10.7574 8.25736 9.75 9.5 9.75Z" fill="var(--fill-0, #8C9498)"/>
</g>
</svg>
