<svg preserveAspectRatio="none" width="100%" height="100%" overflow="visible" style="display: block;" viewBox="0 0 24 24" fill="none" xmlns="http://www.w3.org/2000/svg">
<g id="smart-phone-01">
<path id="Union" d="M13.5 1.25C14.6572 1.25 15.6004 1.24886 16.3428 1.34863C17.1067 1.45134 17.7692 1.67345 18.2979 2.20215C18.8265 2.73084 19.0487 3.39328 19.1514 4.15723C19.2511 4.89956 19.25 5.84284 19.25 7V17C19.25 18.1572 19.2511 19.1004 19.1514 19.8428C19.0487 20.6067 18.8265 21.2692 18.2979 21.7979C17.7692 22.3265 17.1067 22.5487 16.3428 22.6514C15.6004 22.7511 14.6572 22.75 13.5 22.75H10.5C9.34284 22.75 8.39956 22.7511 7.65723 22.6514C6.89328 22.5487 6.23084 22.3265 5.70215 21.7979C5.17346 21.2692 4.95134 20.6067 4.84863 19.8428C4.74886 19.1004 4.75 18.1572 4.75 17V7C4.75 5.84284 4.74886 4.89956 4.84863 4.15723C4.95134 3.39328 5.17345 2.73084 5.70215 2.20215C6.23084 1.67345 6.89328 1.45134 7.65723 1.34863C8.39956 1.24886 9.34284 1.25 10.5 1.25H13.5ZM10.5 2.75C9.30029 2.75 8.47564 2.75171 7.85644 2.83496C7.25904 2.91532 6.9662 3.05919 6.76269 3.26269C6.55919 3.4662 6.41532 3.75904 6.33496 4.35644C6.25171 4.97564 6.25 5.80029 6.25 7V17C6.25 18.1997 6.25171 19.0244 6.33496 19.6436C6.41532 20.241 6.55919 20.5338 6.76269 20.7373C6.9662 20.9408 7.25904 21.0847 7.85644 21.165C8.47564 21.2483 9.30029 21.25 10.5 21.25H13.5C14.6997 21.25 15.5244 21.2483 16.1436 21.165C16.741 21.0847 17.0338 20.9408 17.2373 20.7373C17.4408 20.5338 17.5847 20.241 17.665 19.6436C17.7483 19.0244 17.75 18.1997 17.75 17V7C17.75 5.80029 17.7483 4.97564 17.665 4.35644C17.5847 3.75904 17.4408 3.4662 17.2373 3.26269C17.0338 3.05919 16.741 2.91532 16.1436 2.83496C15.5244 2.75171 14.6997 2.75 13.5 2.75H10.5ZM12.0098 18C12.562 18 13.0098 18.4477 13.0098 19C13.0098 19.5523 12.562 20 12.0098 20H12C11.4477 20 11 19.5523 11 19C11 18.4477 11.4477 18 12 18H12.0098Z" fill="var(--fill-0, #8C9498)"/>
</g>
</svg>
