<svg preserveAspectRatio="none" width="100%" height="100%" overflow="visible" style="display: block;" viewBox="0 0 24 24" fill="none" xmlns="http://www.w3.org/2000/svg">
<g id="paint-board">
<path id="Union" d="M12 1.25C17.9371 1.25 22.75 6.06294 22.75 12C22.75 12.9748 22.6554 13.9549 22.1797 14.7412C21.6695 15.5845 20.8112 16.07 19.6064 16.2422C18.3815 16.4172 17.3331 16.417 16.4814 16.417C15.593 16.417 15.0099 16.4232 14.5605 16.5537C14.1885 16.6618 13.911 16.8549 13.6709 17.335C13.4714 17.734 13.4788 17.9907 13.5312 18.1904C13.5964 18.4378 13.7465 18.6737 13.9902 19.0352C14.2854 19.473 14.75 20.1275 14.75 21C14.75 21.4139 14.6394 21.7983 14.3818 22.1074C14.1314 22.4079 13.8055 22.5601 13.5176 22.6406C12.9936 22.7872 12.3382 22.75 12 22.75C6.06294 22.75 1.25 17.9371 1.25 12C1.25 6.06294 6.06294 1.25 12 1.25ZM12 2.75C6.89137 2.75 2.75 6.89137 2.75 12C2.75 17.1086 6.89137 21.25 12 21.25C12.2454 21.25 12.4312 21.2572 12.6465 21.251C12.8507 21.2451 13.0031 21.2271 13.1133 21.1963C13.1924 21.1741 13.2224 21.1534 13.2295 21.1475C13.2162 21.1638 13.25 21.1432 13.25 21C13.25 20.6547 13.081 20.3694 12.7471 19.874C12.5305 19.5527 12.2221 19.1083 12.0811 18.5732C11.9276 17.9905 11.9813 17.3608 12.3291 16.665C12.7555 15.8123 13.3668 15.3386 14.1426 15.1133C14.8413 14.9104 15.6663 14.917 16.4814 14.917C17.3334 14.917 18.2854 14.9161 19.3936 14.7578C20.2896 14.6298 20.682 14.3193 20.8965 13.9648C21.1454 13.5533 21.25 12.9335 21.25 12C21.25 6.89137 17.1086 2.75 12 2.75ZM6.75 14.0342C7.2834 13.8914 7.83169 14.2078 7.97461 14.7412C8.11728 15.2745 7.8008 15.8228 7.26758 15.9658L7.25879 15.9678C6.72532 16.1107 6.17712 15.7942 6.03418 15.2607C5.89124 14.7273 6.20775 14.1791 6.74121 14.0361L6.75 14.0342ZM16.5 7.25C17.7426 7.25 18.75 8.25736 18.75 9.5C18.75 10.7426 17.7426 11.75 16.5 11.75C15.2574 11.75 14.25 10.7426 14.25 9.5C14.25 8.25736 15.2574 7.25 16.5 7.25ZM9.5 6.25C10.7426 6.25 11.75 7.25736 11.75 8.5C11.75 9.74264 10.7426 10.75 9.5 10.75C8.25736 10.75 7.25 9.74264 7.25 8.5C7.25 7.25736 8.25736 6.25 9.5 6.25ZM16.5 8.75C16.0858 8.75 15.75 9.08579 15.75 9.5C15.75 9.91421 16.0858 10.25 16.5 10.25C16.9142 10.25 17.25 9.91421 17.25 9.5C17.25 9.08579 16.9142 8.75 16.5 8.75ZM9.5 7.75C9.08579 7.75 8.75 8.08579 8.75 8.5C8.75 8.91421 9.08579 9.25 9.5 9.25C9.91421 9.25 10.25 8.91421 10.25 8.5C10.25 8.08579 9.91421 7.75 9.5 7.75Z" fill="var(--fill-0, #8C9498)"/>
</g>
</svg>
