<svg preserveAspectRatio="none" width="100%" height="100%" overflow="visible" style="display: block;" viewBox="0 0 24 24" fill="none" xmlns="http://www.w3.org/2000/svg">
<g id="arrow-right-01-round" opacity="0.36">
<path id="Union" d="M8.39628 5.5555C8.64184 5.2221 9.11064 5.15098 9.44414 5.39632H9.44511L9.44609 5.3973C9.44691 5.3979 9.44855 5.39915 9.45 5.40023C9.4531 5.40252 9.45802 5.40582 9.46367 5.40999C9.47551 5.41877 9.49314 5.43148 9.51542 5.44808C9.56054 5.4817 9.62647 5.53165 9.70976 5.59456C9.87646 5.72048 10.1146 5.90175 10.3992 6.12386C10.9679 6.56768 11.7291 7.17829 12.492 7.84066C13.2512 8.49984 14.0301 9.2253 14.6248 9.89827C14.9214 10.2339 15.188 10.5751 15.3846 10.9012C15.5687 11.2067 15.7497 11.5936 15.7498 11.9998C15.7498 12.4062 15.5687 12.793 15.3846 13.0985C15.1879 13.4246 14.9214 13.7657 14.6248 14.1014C14.0301 14.7744 13.2513 15.4998 12.492 16.159C11.7289 16.8216 10.967 17.4319 10.3982 17.8758C10.1137 18.0979 9.87645 18.2792 9.70976 18.4051C9.62639 18.4681 9.56057 18.518 9.51542 18.5516C9.49307 18.5682 9.47555 18.5809 9.46367 18.5897C9.45798 18.5939 9.45313 18.5971 9.45 18.5994C9.44852 18.6005 9.44693 18.6018 9.44609 18.6024L9.44511 18.6034H9.44414C9.11062 18.8489 8.64188 18.7776 8.39628 18.4442C8.15092 18.1107 8.22208 17.6419 8.55546 17.3963V17.3953C8.55602 17.3949 8.55719 17.3943 8.55839 17.3934C8.56093 17.3915 8.56494 17.3884 8.57011 17.3846C8.58088 17.3766 8.59762 17.3644 8.61894 17.3485C8.66162 17.3167 8.72495 17.2696 8.80546 17.2088C8.96683 17.0869 9.19867 16.9099 9.47636 16.6932C10.0325 16.2592 10.7719 15.6658 11.5086 15.0262C12.2489 14.3834 12.9697 13.7081 13.4998 13.1082C13.7657 12.8073 13.9679 12.5422 14.0994 12.3241C14.2295 12.1082 14.2476 12.0086 14.2498 11.9998C14.2472 11.989 14.228 11.8889 14.0994 11.6756C13.9679 11.4575 13.7656 11.1932 13.4998 10.8924C12.9697 10.2924 12.249 9.61635 11.5086 8.97347C10.7719 8.33387 10.0325 7.74049 9.47636 7.30648C9.19874 7.08982 8.9668 6.91271 8.80546 6.79085C8.72504 6.73011 8.66159 6.68299 8.61894 6.6512C8.59785 6.63548 8.58183 6.62302 8.57109 6.61507C8.56578 6.61116 8.56097 6.60818 8.55839 6.60628C8.55725 6.60546 8.556 6.60472 8.55546 6.60433V6.60335C8.22216 6.3577 8.1508 5.88894 8.39628 5.5555Z" fill="var(--fill-0, #4C575D)"/>
</g>
</svg>
